<svg width="67" height="66" viewBox="0 0 67 66" fill="none" xmlns="http://www.w3.org/2000/svg">
<g filter="url(#filter0_d)">
<path d="M62.0469 23.9585V25.2258C62.0469 29.2107 61.06 33.1336 59.1744 36.6441C57.2888 40.1547 54.5632 43.1436 51.2409 45.344L40.3906 52.5299L36.4531 55.1373L33.5 57.0938L32.5156 56.449L29.5625 54.5135L28.1475 53.5869L17.5371 46.636L16.143 45.723L15.8588 45.536C12.5087 43.3411 9.75774 40.3468 7.85386 36.8232C5.94998 33.2997 4.9531 29.3576 4.95313 25.3526V22.5065C4.9532 19.3799 5.84488 16.3181 7.52357 13.6804C8.84733 11.5995 10.6747 9.88636 12.8366 8.6995C14.9984 7.51265 17.4248 6.89049 19.891 6.89063H20.2638C22.5397 6.89073 24.7843 7.42071 26.8198 8.43859C28.8554 9.45647 30.626 10.9343 31.9914 12.755L33.5 14.7656L35.0086 12.755C36.4598 10.8199 38.3674 9.27387 40.5612 8.25491C42.755 7.23596 45.1669 6.77571 47.5818 6.91521C49.9966 7.0547 52.3395 7.7896 54.4014 9.05438C56.4632 10.3192 58.1801 12.0745 59.3989 14.1639C61.1324 17.1371 62.0461 20.5169 62.0469 23.9585V23.9585Z" fill="#5D62B5"/>
<path d="M36.4531 46.7578V55.125V55.1373L40.3906 52.5299V43.6816L36.4531 46.7578Z" fill="#EA9D2D"/>
<path d="M46.2969 20.6719V23.1328C46.297 23.456 46.2334 23.7761 46.1097 24.0747C45.9861 24.3733 45.8048 24.6446 45.5763 24.8732C45.3477 25.1017 45.0764 25.283 44.7778 25.4066C44.4792 25.5303 44.1591 25.5938 43.8359 25.5938H41.375V31.5L41.0147 32.4859L41.6383 33.4688L42.1182 37.0666C42.2362 37.9473 42.2733 38.837 42.2289 39.7245C42.1451 41.4114 41.4978 43.0214 40.3906 44.2969L36.4531 47.25V55.1373L33.5 57.0938L32.5156 56.449V49.2188L28.1474 53.5869L17.5371 46.636L25.625 35.4375L27.5937 32.4844L30.1716 29.9065L31.475 29.5875L31.5312 28.5469V25.8054C31.5314 23.1484 32.587 20.6003 34.4659 18.7216C35.1084 18.0797 35.9793 17.7191 36.8875 17.7188H39.0186C39.8974 17.7189 40.7401 18.0681 41.3615 18.6896L43.3437 20.6719H46.2969Z" fill="#FBB540"/>
<path d="M37.4375 20.6719H39.4062V22.6406H37.4375V20.6719Z" fill="#985713"/>
<path d="M41.6387 33.4686H40.2187C38.2375 33.466 36.2838 33.0049 34.5105 32.1213L30.1719 29.9064L31.5315 28.5468V28.3905L35.3989 30.3642C36.8963 31.1097 38.546 31.4985 40.2187 31.4999H41.3753L41.6387 33.4686Z" fill="#5D62B5"/>
<path d="M33.745 29.5312H31.5312V27.5625H33.745C33.941 27.5623 34.129 27.4843 34.2676 27.3456C34.4062 27.207 34.4842 27.019 34.4844 26.823V23.625H36.4531V26.823C36.4523 27.541 36.1667 28.2294 35.659 28.7371C35.1513 29.2448 34.463 29.5304 33.745 29.5312V29.5312Z" fill="#985713"/>
<path d="M33.5001 35.4375V37.4063C33.4999 38.1894 33.1887 38.9404 32.6349 39.4942C32.0811 40.048 31.3301 40.3592 30.5469 40.3594V43.94C30.5473 44.8147 30.2883 45.6699 29.8025 46.3973L28.5782 48.2344V51.1875L28.9362 51.9036L29.234 52.5004L29.5626 53.1562V54.5135L28.1475 53.5869L17.5372 46.636L16.1431 45.723L21.6876 37.4063V34.3252C21.6876 34.2501 21.6888 34.1738 21.6912 34.0987C21.7536 32.6591 22.2998 31.2826 23.2416 30.192L24.6407 28.5469L25.6251 32.4844H27.9821C28.4683 32.4844 28.9468 32.6044 29.3754 32.8339C29.8039 33.0634 30.1692 33.3952 30.4387 33.7997C30.7749 34.3035 31.2302 34.7165 31.7642 35.0022C32.2982 35.2878 32.8944 35.4374 33.5001 35.4375Z" fill="#E4E4E2"/>
<path d="M26.6094 35.4375H28.5781V37.4062H26.6094V35.4375Z" fill="#29C3BE"/>
</g>
<defs>
<filter id="filter0_d" x="-2" y="0" width="71" height="71" filterUnits="userSpaceOnUse" color-interpolation-filters="sRGB">
<feFlood flood-opacity="0" result="BackgroundImageFix"/>
<feColorMatrix in="SourceAlpha" type="matrix" values="0 0 0 0 0 0 0 0 0 0 0 0 0 0 0 0 0 0 127 0" result="hardAlpha"/>
<feOffset dy="4"/>
<feGaussianBlur stdDeviation="2"/>
<feComposite in2="hardAlpha" operator="out"/>
<feColorMatrix type="matrix" values="0 0 0 0 0 0 0 0 0 0 0 0 0 0 0 0 0 0 0.25 0"/>
<feBlend mode="normal" in2="BackgroundImageFix" result="effect1_dropShadow"/>
<feBlend mode="normal" in="SourceGraphic" in2="effect1_dropShadow" result="shape"/>
</filter>
</defs>
</svg>
